<?xml version="1.0" encoding="UTF-8" standalone="no"?><!DOCTYPE svg PUBLIC "-//W3C//DTD SVG 1.1//EN" "http://www.w3.org/Graphics/SVG/1.1/DTD/svg11.dtd"><svg width="100%" height="100%" viewBox="0 0 5417 2084" version="1.1" xmlns="http://www.w3.org/2000/svg" xmlns:xlink="http://www.w3.org/1999/xlink" xml:space="preserve" xmlns:serif="http://www.serif.com/" style="fill-rule:evenodd;clip-rule:evenodd;stroke-linecap:round;stroke-linejoin:round;stroke-miterlimit:1.5;"><g id="CALM-man" serif:id="CALM man"><g id="Partial-x" serif:id="Partial x"><rect x="1454.63" y="1116.69" width="287.822" height="28.782" style="fill:#43859b;"/><path d="M1518.66,946.442l-17.853,-7.935c6.172,-13.841 13.577,-23.76 22.217,-29.755c8.64,-5.995 17.104,-8.992 25.391,-8.992c6.7,-0 12.761,1.741 18.183,5.224c5.422,3.482 9.5,7.471 12.233,11.967c4.143,6.965 7.207,15.208 9.191,24.73c1.983,9.521 2.975,20.453 2.975,32.796c0,25.391 -3.813,47.982 -11.439,67.775c-7.626,19.792 -17.919,34.405 -30.879,43.838c-12.959,9.433 -25.699,14.15 -38.218,14.15c-12.078,0 -21.886,-4.011 -29.424,-12.034c-7.538,-8.023 -11.307,-19.307 -11.307,-33.854c0,-19.925 6.745,-36.984 20.234,-51.178c17.367,-18.25 45.976,-27.727 85.825,-28.432c-0.353,-14.812 -1.41,-26.096 -3.174,-33.855c-1.763,-7.758 -4.76,-13.731 -8.992,-17.918c-4.232,-4.188 -9.213,-6.282 -14.944,-6.282c-5.466,0 -10.799,2.182 -16.001,6.546c-5.202,4.364 -9.874,12.1 -14.018,23.209Zm56.6,45.227c-21.511,1.234 -37.27,4.231 -47.277,8.992c-10.006,4.761 -18.249,12.541 -24.729,23.341c-6.48,10.8 -9.72,21.754 -9.72,32.862c0,7.318 2.248,13.357 6.744,18.118c4.497,4.76 9.742,7.141 15.737,7.141c6.612,-0 13.665,-2.425 21.159,-7.274c10.315,-6.7 18.713,-17.037 25.192,-31.01c6.48,-13.974 10.778,-31.364 12.894,-52.17Z" style="fill:#43859b;fill-rule:nonzero;"/><path d="M1706.05,1096.93l0,-20.63c-10.932,15.869 -25.787,23.804 -44.566,23.804c-8.287,-0 -16.023,-1.587 -23.208,-4.761c-7.185,-3.174 -12.519,-7.163 -16.002,-11.968c-3.482,-4.805 -5.928,-10.69 -7.339,-17.654c-0.97,-4.673 -1.455,-12.078 -1.455,-22.217l0,-87.016l23.804,0l0,77.891c0,12.431 0.485,20.806 1.455,25.126c1.498,6.26 4.672,11.175 9.521,14.745c4.849,3.571 10.844,5.356 17.985,5.356c7.141,0 13.842,-1.829 20.101,-5.488c6.26,-3.659 10.69,-8.64 13.291,-14.943c2.6,-6.304 3.901,-15.451 3.901,-27.441l-0,-75.246l23.803,0l0,140.442l-21.291,0Z" style="fill:#43859b;fill-rule:nonzero;"/><path d="M1518.66,1213.35l-17.853,-7.934c6.172,-13.842 13.577,-23.76 22.217,-29.755c8.64,-5.995 17.104,-8.992 25.391,-8.992c6.7,-0 12.761,1.741 18.183,5.223c5.422,3.483 9.5,7.472 12.233,11.968c4.143,6.965 7.207,15.208 9.191,24.73c1.983,9.521 2.975,20.453 2.975,32.796c0,25.39 -3.813,47.982 -11.439,67.774c-7.626,19.793 -17.919,34.406 -30.879,43.839c-12.959,9.433 -25.699,14.15 -38.218,14.15c-12.078,-0 -21.886,-4.012 -29.424,-12.034c-7.538,-8.023 -11.307,-19.308 -11.307,-33.854c0,-19.925 6.745,-36.984 20.234,-51.178c17.367,-18.25 45.976,-27.727 85.825,-28.433c-0.353,-14.811 -1.41,-26.096 -3.174,-33.854c-1.763,-7.758 -4.76,-13.731 -8.992,-17.919c-4.232,-4.187 -9.213,-6.281 -14.944,-6.281c-5.466,-0 -10.799,2.182 -16.001,6.546c-5.202,4.364 -9.874,12.1 -14.018,23.208Zm56.6,45.227c-21.511,1.235 -37.27,4.232 -47.277,8.993c-10.006,4.761 -18.249,12.541 -24.729,23.341c-6.48,10.8 -9.72,21.754 -9.72,32.862c0,7.318 2.248,13.357 6.744,18.117c4.497,4.761 9.742,7.142 15.737,7.142c6.612,-0 13.665,-2.425 21.159,-7.274c10.315,-6.7 18.713,-17.037 25.192,-31.011c6.48,-13.973 10.778,-31.363 12.894,-52.17Z" style="fill:#43859b;fill-rule:nonzero;"/><path d="M1598.14,1363.84l51.31,-72.998l-47.475,-67.444l29.755,-0l21.555,32.928c4.056,6.26 7.318,11.505 9.786,15.737c3.88,-5.818 7.45,-10.976 10.712,-15.472l23.672,-33.193l28.432,-0l-48.533,66.121l52.236,74.321l-29.226,-0l-28.829,-43.64l-7.67,-11.77l-36.896,55.41l-28.829,-0Z" style="fill:#43859b;fill-rule:nonzero;"/></g><g id="Partial-t" serif:id="Partial t"><rect x="3.845" y="1117.17" width="287.822" height="28.782" style="fill:#43859b;"/><path d="M67.881,946.922l-17.853,-7.935c6.172,-13.841 13.577,-23.759 22.217,-29.754c8.64,-5.995 17.103,-8.993 25.391,-8.993c6.7,0 12.761,1.741 18.183,5.224c5.422,3.482 9.5,7.471 12.233,11.968c4.143,6.964 7.207,15.208 9.19,24.729c1.984,9.522 2.976,20.454 2.976,32.796c-0,25.391 -3.813,47.982 -11.439,67.775c-7.626,19.792 -17.919,34.405 -30.879,43.838c-12.96,9.434 -25.699,14.15 -38.218,14.15c-12.078,0 -21.886,-4.011 -29.424,-12.034c-7.538,-8.023 -11.307,-19.307 -11.307,-33.854c0,-19.925 6.745,-36.984 20.233,-51.178c17.368,-18.25 45.977,-27.727 85.826,-28.432c-0.353,-14.811 -1.411,-26.096 -3.174,-33.854c-1.763,-7.759 -4.761,-13.732 -8.992,-17.919c-4.232,-4.188 -9.213,-6.282 -14.944,-6.282c-5.466,0 -10.8,2.182 -16.001,6.546c-5.202,4.364 -9.874,12.1 -14.018,23.209Zm56.6,45.227c-21.511,1.234 -37.27,4.232 -47.277,8.992c-10.006,4.761 -18.249,12.541 -24.729,23.341c-6.48,10.8 -9.72,21.754 -9.72,32.863c-0,7.317 2.248,13.356 6.744,18.117c4.497,4.761 9.742,7.141 15.737,7.141c6.612,-0 13.665,-2.425 21.159,-7.273c10.315,-6.701 18.712,-17.038 25.192,-31.011c6.48,-13.974 10.778,-31.364 12.894,-52.17Z" style="fill:#43859b;fill-rule:nonzero;"/><path d="M255.269,1097.41l0,-20.63c-10.932,15.869 -25.787,23.804 -44.566,23.804c-8.287,-0 -16.023,-1.587 -23.208,-4.761c-7.185,-3.174 -12.519,-7.163 -16.002,-11.968c-3.482,-4.805 -5.929,-10.689 -7.339,-17.654c-0.97,-4.673 -1.455,-12.078 -1.455,-22.217l0,-87.016l23.804,0l-0,77.891c-0,12.431 0.485,20.806 1.455,25.126c1.498,6.26 4.672,11.175 9.521,14.745c4.849,3.571 10.844,5.356 17.985,5.356c7.141,0 13.842,-1.829 20.101,-5.488c6.259,-3.658 10.69,-8.64 13.29,-14.943c2.601,-6.304 3.902,-15.451 3.902,-27.441l-0,-75.246l23.803,0l0,140.442l-21.291,0Z" style="fill:#43859b;fill-rule:nonzero;"/><path d="M96.842,1213.35l-17.853,-7.934c6.172,-13.842 13.577,-23.76 22.217,-29.755c8.64,-5.995 17.104,-8.992 25.391,-8.992c6.7,-0 12.761,1.741 18.183,5.223c5.422,3.483 9.5,7.472 12.233,11.968c4.143,6.965 7.207,15.208 9.191,24.73c1.983,9.521 2.975,20.453 2.975,32.796c0,25.39 -3.813,47.982 -11.439,67.774c-7.626,19.793 -17.919,34.406 -30.879,43.839c-12.959,9.433 -25.699,14.15 -38.218,14.15c-12.078,-0 -21.886,-4.012 -29.424,-12.034c-7.538,-8.023 -11.307,-19.308 -11.307,-33.854c0,-19.925 6.745,-36.984 20.234,-51.178c17.367,-18.25 45.976,-27.727 85.825,-28.433c-0.352,-14.811 -1.41,-26.096 -3.174,-33.854c-1.763,-7.758 -4.76,-13.731 -8.992,-17.919c-4.232,-4.187 -9.213,-6.281 -14.944,-6.281c-5.466,-0 -10.799,2.182 -16.001,6.546c-5.202,4.364 -9.874,12.1 -14.018,23.208Zm56.6,45.227c-21.511,1.235 -37.27,4.232 -47.277,8.993c-10.006,4.761 -18.249,12.541 -24.729,23.341c-6.48,10.8 -9.72,21.754 -9.72,32.862c0,7.318 2.248,13.357 6.745,18.117c4.496,4.761 9.741,7.142 15.736,7.142c6.613,-0 13.665,-2.425 21.159,-7.274c10.315,-6.7 18.713,-17.037 25.193,-31.011c6.479,-13.973 10.777,-31.363 12.893,-52.17Z" style="fill:#43859b;fill-rule:nonzero;"/><path d="M244.161,1342.55l3.438,21.026c-6.7,1.411 -12.695,2.116 -17.985,2.116c-8.64,0 -15.34,-1.366 -20.101,-4.099c-4.761,-2.733 -8.111,-6.326 -10.05,-10.778c-1.94,-4.452 -2.91,-13.82 -2.91,-28.102l0,-80.8l-17.456,-0l0,-18.514l17.456,-0l0,-34.78l23.672,-14.282l-0,49.062l23.936,-0l-0,18.514l-23.936,-0l-0,82.123c-0,6.788 0.419,11.152 1.256,13.092c0.838,1.939 2.204,3.482 4.1,4.628c1.895,1.146 4.606,1.719 8.133,1.719c2.644,0 6.127,-0.308 10.447,-0.925Z" style="fill:#43859b;fill-rule:nonzero;"/></g><path d="M872.592,733.663l249.499,0l14.6,-44.019c19.432,-288.964 -264.099,-271.456 -264.099,-271.456l0.521,0c0,0 -283.531,-17.508 -264.099,271.456l14.6,44.019l249.499,0" style="fill:#0c2354;stroke:#000;stroke-width:8.33px;"/><path d="M1100.96,721.461c12.151,-38.316 78.668,-51.349 84.012,4.866c1.629,17.139 12.443,98.53 -73.367,99.044c0,0 -23.749,105.647 -132.059,157.738c-0,0 -1.935,13.564 -0,36.683c1.935,23.12 38.027,36.773 161.406,55.025c123.379,18.252 118.102,125.149 137.562,194.421c15.511,55.215 27.363,190.441 170.577,227.436c20.126,5.198 42.194,5.041 62.361,-0c24.455,-6.114 45.91,-32.821 84.371,-36.684c38.461,-3.862 52.305,19.037 73.367,62.362c3.423,7.041 14.785,10.811 14.673,-18.342c-0.113,-29.153 3.668,-44.02 3.668,-44.02c0,0 20.446,-43.225 51.357,0c14.546,20.342 -11.186,156.537 -157.738,183.416c-0,0 -106.091,8.287 -135.728,3.669c-29.637,-4.619 -183.951,-14.879 -249.445,-139.397c-0,0 -3.4,74.833 25.678,150.402l106.381,3.668c0,-0 116.607,1.937 124.723,124.723c8.116,122.786 -175.339,183.046 -265.953,176.079c-0,-0 7.499,25.086 7.336,36.683c-0.162,11.597 1.377,73.173 -77.034,82.537c-78.411,9.365 -76.788,-24.465 -243.943,-71.532l-0.107,-0c-167.156,47.067 -165.533,80.897 -243.944,71.532c-78.41,-9.364 -76.872,-70.94 -77.034,-82.537c-0.163,-11.597 7.336,-36.683 7.336,-36.683c-90.614,6.967 -274.069,-53.293 -265.953,-176.079c8.116,-122.786 124.723,-124.723 124.723,-124.723l106.381,-3.668c29.078,-75.569 25.679,-150.402 25.679,-150.402c-65.495,124.518 -219.809,134.778 -249.446,139.397c-29.637,4.618 -135.728,-3.669 -135.728,-3.669c-146.551,-26.879 -172.283,-163.074 -157.737,-183.416c30.91,-43.225 51.356,0 51.356,0c0,0 3.781,14.867 3.668,44.02c-0.112,29.153 11.251,25.383 14.674,18.342c21.061,-43.325 34.905,-66.224 73.366,-62.362c38.461,3.863 59.916,30.57 84.371,36.684c20.167,5.041 42.235,5.198 62.362,-0c143.213,-36.995 155.065,-172.221 170.576,-227.436c19.461,-69.272 14.183,-176.169 137.562,-194.421c123.38,-18.252 159.471,-31.905 161.406,-55.025c1.935,-23.119 0,-36.683 0,-36.683c-108.31,-52.091 -132.059,-157.738 -132.059,-157.738c-85.81,-0.514 -74.996,-81.905 -73.366,-99.044c5.399,-56.797 73.244,-42.905 84.371,-3.668c-0,-0 1.927,-92.162 104.547,-126.557c102.62,-34.395 128.418,41.913 242.109,-77.035c-0,-0 -1.806,48.546 64.195,97.21c58.811,43.363 46.891,96.587 44.487,105.184c-0.126,0.397 -0.246,0.796 -0.36,1.198c0,-0 0.141,-0.413 0.36,-1.198Zm-950.561,778.881c-20.246,-0 -36.683,16.437 -36.683,36.683c-0,20.246 16.437,36.683 36.683,36.683c20.246,0 36.683,-16.437 36.683,-36.683c0,-20.246 -16.437,-36.683 -36.683,-36.683Zm1445.32,-0c-20.246,-0 -36.683,16.437 -36.683,36.683c-0,20.246 16.437,36.683 36.683,36.683c20.246,0 36.683,-16.437 36.683,-36.683c0,-20.246 -16.437,-36.683 -36.683,-36.683Z" style="fill:#f8a200;stroke:#f87f00;stroke-width:8.33px;"/><path d="M1193.12,1990.06l-4.585,-27.377c-109.57,-1.637 -315.758,47.553 -315.758,47.553c0,-0 38.093,11.328 57.141,17.394c2.834,0.902 153.632,-39.207 263.202,-37.57Z" style="fill:#0c2354;stroke:#0c2354;stroke-width:8.33px;"/><path d="M718.99,724.493c17.352,30.834 51.357,31.18 51.357,31.18c-0,0 34.004,-0.346 51.356,-31.18" style="fill:none;stroke:#0c2354;stroke-width:25px;"/><path d="M924.416,724.493c17.352,30.834 51.356,31.18 51.356,31.18c0,0 34.005,-0.346 51.357,-31.18" style="fill:none;stroke:#0c2354;stroke-width:25px;"/><path d="M803.362,882.211c26.524,36.288 69.698,33.015 69.698,33.015l-0,-0.038c-0,-0 43.173,3.273 69.698,-33.015" style="fill:none;stroke:#0c2354;stroke-width:25px;"/><path d="M873.06,832.708c22.623,-2.939 27.23,-9.171 27.23,-9.171c-1.816,18.534 -27.23,23.844 -27.23,23.844l-0.283,0c0,0 -25.414,-5.31 -27.23,-23.844c0,0 4.607,6.232 27.23,9.171" style="fill:none;stroke:#0c2354;stroke-width:10.42px;"/><g id="NN"><circle cx="652.678" cy="1315.7" r="55.025" style="fill:#0c2354;"/><circle cx="652.678" cy="1535.8" r="55.025" style="fill:#0c2354;"/><circle cx="1092.88" cy="1315.7" r="55.025" style="fill:#0c2354;"/><circle cx="1092.88" cy="1535.8" r="55.025" style="fill:#0c2354;"/><circle cx="872.777" cy="1425.75" r="55.025" style="fill:#0c2354;"/><circle cx="872.777" cy="1168.97" r="55.025" style="fill:#0c2354;"/><circle cx="872.777" cy="1682.53" r="55.025" style="fill:#0c2354;"/><path d="M872.777,1682.53l220.1,-146.732" style="fill:none;stroke:#0c2354;stroke-width:20.83px;"/><path d="M872.777,1168.97l220.1,146.733" style="fill:none;stroke:#0c2354;stroke-width:20.83px;"/><path d="M872.777,1425.75l220.1,-110.049" style="fill:none;stroke:#0c2354;stroke-width:20.83px;"/><path d="M872.777,1425.75l220.1,110.05" style="fill:none;stroke:#0c2354;stroke-width:20.83px;"/><path d="M652.678,1535.8l220.099,-110.05" style="fill:none;stroke:#0c2354;stroke-width:20.83px;"/><path d="M652.678,1315.7l220.099,366.831" style="fill:none;stroke:#0c2354;stroke-width:20.83px;"/><path d="M652.678,1535.8l220.099,-366.832" style="fill:none;stroke:#0c2354;stroke-width:20.83px;"/><path d="M872.777,1168.97l220.1,366.832" style="fill:none;stroke:#0c2354;stroke-width:20.83px;"/><path d="M872.777,1682.53l220.1,-366.831" style="fill:none;stroke:#0c2354;stroke-width:20.83px;"/><path d="M652.678,1535.8l220.099,146.732" style="fill:none;stroke:#0c2354;stroke-width:20.83px;"/><path d="M652.678,1315.7l220.099,110.049" style="fill:none;stroke:#0c2354;stroke-width:20.83px;"/><path d="M652.678,1315.7l220.099,-146.733l-220.099,146.733Z" style="fill:#0c2354;stroke:#0c2354;stroke-width:20.83px;"/></g><g id="Leaf"><path d="M873.739,385.173c0,0 83.569,-79.275 81.557,-192.586c2.012,-113.312 -81.557,-192.587 -81.557,-192.587l-1.924,0c0,0 -83.568,79.275 -81.556,192.587c-2.012,113.311 81.556,192.586 81.556,192.586" style="fill:#43859b;stroke:#00486e;stroke-width:8.33px;"/><path d="M753.559,406.181c0,0 20.068,-95.304 -35.811,-172.866c-53.078,-79.506 -149.374,-94.089 -149.374,-94.089l-1.339,0.929c-0,0 -20.068,95.304 35.811,172.867c53.078,79.505 149.374,94.088 149.374,94.088" style="fill:#43859b;stroke:#00486e;stroke-width:8.33px;"/><path d="M639.221,476.046c-0,-0 -16.559,-67.093 -78.33,-111.311c-60.508,-45.93 -129.497,-41.906 -129.497,-41.906l-0.604,0.818c0,0 16.559,67.094 78.33,111.312c60.508,45.93 129.497,41.906 129.497,41.906" style="fill:#43859b;stroke:#00486e;stroke-width:8.33px;"/><path d="M991.996,406.181c-0,0 -20.068,-95.304 35.811,-172.866c53.077,-79.506 149.373,-94.089 149.373,-94.089l1.34,0.929c-0,0 20.068,95.304 -35.811,172.867c-53.078,79.505 -149.374,94.088 -149.374,94.088" style="fill:#43859b;stroke:#00486e;stroke-width:8.33px;"/><path d="M1106.33,476.046c0,-0 16.559,-67.093 78.33,-111.311c60.508,-45.93 129.497,-41.906 129.497,-41.906l0.604,0.818c-0,0 -16.559,67.094 -78.33,111.312c-60.508,45.93 -129.497,41.906 -129.497,41.906" style="fill:#43859b;stroke:#00486e;stroke-width:8.33px;"/></g><path d="M713.488,1907.66c-0,0 -68.041,-31.648 -154.07,55.025c0,0 90.662,-57.565 146.733,-40.351l7.337,-14.674Z" style="fill:#0c2354;stroke:#0c2354;stroke-width:8.33px;"/><path d="M1178.94,1737.56c-57.555,1.391 -137.352,22.382 -192.587,56.859c-77.056,48.098 -150.097,48.098 -227.153,0c-55.235,-34.477 -135.032,-55.468 -192.587,-56.859" style="fill:none;stroke:#0c2354;stroke-width:29.17px;"/></g><g id="text"><path d="M2579.03,855.57l84.666,26.846c-12.98,47.2 -34.564,82.257 -64.753,105.168c-30.189,22.912 -68.49,34.368 -114.904,34.368c-57.427,0 -104.628,-19.617 -141.601,-58.853c-36.974,-39.235 -55.461,-92.877 -55.461,-160.924c0,-71.981 18.585,-127.884 55.756,-167.709c37.17,-39.826 86.042,-59.739 146.616,-59.739c52.904,0 95.876,15.636 128.917,46.906c19.667,18.487 34.417,45.037 44.25,79.651l-86.436,20.65c-5.113,-22.42 -15.782,-40.12 -32.008,-53.101c-16.225,-12.98 -35.941,-19.47 -59.148,-19.47c-32.057,0 -58.066,11.505 -78.028,34.516c-19.962,23.01 -29.943,60.279 -29.943,111.806c0,54.674 9.834,93.614 29.5,116.821c19.667,23.207 45.234,34.81 76.701,34.81c23.207,0 43.169,-7.375 59.886,-22.125c16.717,-14.75 28.714,-37.957 35.99,-69.621Z" style="fill:#43859b;fill-rule:nonzero;"/><path d="M3128.62,1014.58l-94.991,0l-37.76,-98.236l-172.872,0l-35.695,98.236l-92.631,0l168.446,-432.475l92.337,0l173.166,432.475Zm-160.776,-171.102l-59.591,-160.481l-58.411,160.481l118.002,0Z" style="fill:#43859b;fill-rule:nonzero;"/><path d="M3177.3,1014.58l-0,-428.935l87.321,0l-0,356.069l217.122,0l0,72.866l-304.443,0Z" style="fill:#43859b;fill-rule:nonzero;"/><path d="M3542.81,1014.58l-0,-432.475l130.686,0l78.471,295.004l77.586,-295.004l130.982,0l-0,432.475l-81.126,0l-0,-340.434l-85.846,340.434l-84.076,0l-85.551,-340.434l-0,340.434l-81.126,0Z" style="fill:#43859b;fill-rule:nonzero;"/><rect x="4037.23" y="816.335" width="162.842" height="82.896" style="fill:#43859b;fill-rule:nonzero;"/><path d="M4248.45,1014.58l-0,-432.475l140.126,0c53.101,0 87.715,2.164 103.841,6.491c24.781,6.49 45.529,20.601 62.246,42.332c16.717,21.732 25.075,49.807 25.075,84.224c0,26.55 -4.818,48.872 -14.455,66.966c-9.637,18.093 -21.879,32.303 -36.728,42.628c-14.848,10.325 -29.942,17.159 -45.283,20.502c-20.847,4.13 -51.035,6.195 -90.566,6.195l-56.935,0l-0,163.137l-87.321,0Zm87.321,-359.314l-0,122.722l47.79,-0c34.417,-0 57.428,-2.262 69.031,-6.785c11.603,-4.524 20.699,-11.604 27.288,-21.241c6.588,-9.636 9.882,-20.847 9.882,-33.63c0,-15.734 -4.621,-28.714 -13.865,-38.94c-9.243,-10.227 -20.945,-16.619 -35.105,-19.176c-10.424,-1.966 -31.369,-2.95 -62.836,-2.95l-42.185,0Z" style="fill:#43859b;fill-rule:nonzero;"/><path d="M4651.13,582.102l159.597,0c35.99,0 63.426,2.754 82.306,8.261c25.37,7.473 47.102,20.748 65.196,39.825c18.093,19.077 31.86,42.431 41.3,70.063c9.44,27.632 14.16,61.705 14.16,102.219c0,35.597 -4.425,66.277 -13.275,92.041c-10.817,31.467 -26.255,56.936 -46.315,76.406c-15.144,14.75 -35.597,26.255 -61.361,34.515c-19.274,6.097 -45.037,9.145 -77.291,9.145l-164.317,0l0,-432.475Zm87.321,73.161l0,286.448l65.196,0c24.387,0 41.989,-1.376 52.805,-4.13c14.161,-3.54 25.912,-9.538 35.253,-17.995c9.342,-8.457 16.963,-22.371 22.863,-41.743c5.9,-19.372 8.85,-45.774 8.85,-79.208c0,-33.434 -2.95,-59.099 -8.85,-76.996c-5.9,-17.897 -14.16,-31.86 -24.78,-41.89c-10.62,-10.031 -24.092,-16.816 -40.416,-20.356c-12.193,-2.753 -36.088,-4.13 -71.685,-4.13l-39.236,0Z" style="fill:#43859b;fill-rule:nonzero;"/><path d="M5087.74,1014.58l0,-432.475l320.669,0l-0,73.161l-233.348,0l0,95.876l217.122,0l0,72.866l-217.122,0l0,117.706l241.608,0l-0,72.866l-328.929,0Z" style="fill:#43859b;fill-rule:nonzero;"/><path d="M2286.98,1438.62l0,-208.781l71.92,0c16.235,0 28.625,0.997 37.17,2.991c11.963,2.753 22.17,7.738 30.62,14.953c11.013,9.305 19.249,21.197 24.709,35.675c5.459,14.479 8.189,31.023 8.189,49.632c-0,15.856 -1.852,29.907 -5.555,42.155c-3.702,12.248 -8.45,22.383 -14.241,30.406c-5.792,8.023 -12.129,14.336 -19.013,18.941c-6.883,4.605 -15.191,8.094 -24.922,10.468c-9.732,2.373 -20.912,3.56 -33.539,3.56l-75.338,-0Zm27.629,-24.638l44.576,0c13.767,0 24.566,-1.282 32.399,-3.845c7.833,-2.564 14.076,-6.171 18.728,-10.824c6.551,-6.551 11.654,-15.357 15.309,-26.418c3.656,-11.061 5.483,-24.471 5.483,-40.232c0,-21.837 -3.584,-38.618 -10.752,-50.344c-7.168,-11.725 -15.879,-19.582 -26.133,-23.57c-7.406,-2.848 -19.321,-4.272 -35.746,-4.272l-43.864,-0l-0,159.505Z" style="fill:#43859b;fill-rule:nonzero;"/><path d="M2597.87,1389.91l26.489,3.275c-4.177,15.476 -11.915,27.487 -23.214,36.032c-11.298,8.544 -25.729,12.817 -43.294,12.817c-22.122,-0 -39.663,-6.812 -52.622,-20.437c-12.96,-13.624 -19.44,-32.731 -19.44,-57.322c-0,-25.445 6.551,-45.193 19.653,-59.245c13.103,-14.051 30.097,-21.077 50.985,-21.077c20.223,-0 36.743,6.883 49.561,20.65c12.817,13.767 19.226,33.135 19.226,58.106c-0,1.519 -0.048,3.797 -0.143,6.836l-112.793,-0c0.95,16.615 5.649,29.337 14.099,38.167c8.45,8.83 18.989,13.244 31.617,13.244c9.399,0 17.422,-2.468 24.068,-7.405c6.646,-4.937 11.915,-12.818 15.808,-23.641Zm-84.168,-41.443l84.453,0c-1.14,-12.722 -4.368,-22.264 -9.685,-28.625c-8.165,-9.875 -18.751,-14.812 -31.758,-14.812c-11.773,0 -21.671,3.941 -29.694,11.821c-8.023,7.88 -12.461,18.419 -13.316,31.616Z" style="fill:#43859b;fill-rule:nonzero;"/><path d="M2760.08,1389.91l26.489,3.275c-4.177,15.476 -11.915,27.487 -23.213,36.032c-11.299,8.544 -25.73,12.817 -43.295,12.817c-22.122,-0 -39.662,-6.812 -52.622,-20.437c-12.96,-13.624 -19.44,-32.731 -19.44,-57.322c0,-25.445 6.551,-45.193 19.653,-59.245c13.103,-14.051 30.098,-21.077 50.985,-21.077c20.223,-0 36.743,6.883 49.561,20.65c12.817,13.767 19.226,33.135 19.226,58.106c-0,1.519 -0.048,3.797 -0.143,6.836l-112.793,-0c0.95,16.615 5.649,29.337 14.099,38.167c8.45,8.83 18.989,13.244 31.617,13.244c9.399,0 17.422,-2.468 24.068,-7.405c6.646,-4.937 11.915,-12.818 15.808,-23.641Zm-84.168,-41.443l84.453,0c-1.14,-12.722 -4.368,-22.264 -9.684,-28.625c-8.166,-9.875 -18.752,-14.812 -31.759,-14.812c-11.773,0 -21.671,3.941 -29.694,11.821c-8.022,7.88 -12.461,18.419 -13.316,31.616Z" style="fill:#43859b;fill-rule:nonzero;"/><path d="M2818.76,1496.58l0,-209.208l23.356,-0l0,19.653c5.507,-7.69 11.726,-13.458 18.657,-17.303c6.931,-3.846 15.333,-5.768 25.207,-5.768c12.912,-0 24.306,3.323 34.18,9.969c9.874,6.646 17.327,16.022 22.359,28.127c5.032,12.105 7.548,25.374 7.548,39.805c0,15.476 -2.777,29.409 -8.331,41.799c-5.554,12.39 -13.625,21.885 -24.211,28.483c-10.586,6.599 -21.718,9.898 -33.396,9.898c-8.545,-0 -16.212,-1.804 -23,-5.412c-6.789,-3.608 -12.367,-8.165 -16.734,-13.672l-0,73.629l-25.635,0Zm23.214,-132.731c-0,19.463 3.94,33.847 11.82,43.152c7.881,9.304 17.422,13.956 28.626,13.956c11.393,0 21.148,-4.818 29.266,-14.455c8.118,-9.636 12.177,-24.566 12.177,-44.789c-0,-19.274 -3.964,-33.705 -11.892,-43.295c-7.928,-9.589 -17.398,-14.384 -28.412,-14.384c-10.918,0 -20.579,5.104 -28.981,15.31c-8.403,10.207 -12.604,25.041 -12.604,44.505Z" style="fill:#43859b;fill-rule:nonzero;"/><path d="M3064.14,1438.62l-0,-208.781l27.628,0l0,184.143l102.824,0l0,24.638l-130.452,-0Z" style="fill:#43859b;fill-rule:nonzero;"/><path d="M3327.75,1389.91l26.489,3.275c-4.178,15.476 -11.916,27.487 -23.214,36.032c-11.298,8.544 -25.73,12.817 -43.294,12.817c-22.122,-0 -39.663,-6.812 -52.623,-20.437c-12.959,-13.624 -19.439,-32.731 -19.439,-57.322c-0,-25.445 6.551,-45.193 19.653,-59.245c13.102,-14.051 30.097,-21.077 50.985,-21.077c20.223,-0 36.743,6.883 49.56,20.65c12.818,13.767 19.226,33.135 19.226,58.106c0,1.519 -0.047,3.797 -0.142,6.836l-112.793,-0c0.949,16.615 5.649,29.337 14.099,38.167c8.45,8.83 18.989,13.244 31.616,13.244c9.4,0 17.422,-2.468 24.069,-7.405c6.646,-4.937 11.915,-12.818 15.808,-23.641Zm-84.168,-41.443l84.452,0c-1.139,-12.722 -4.367,-22.264 -9.684,-28.625c-8.165,-9.875 -18.751,-14.812 -31.758,-14.812c-11.773,0 -21.671,3.941 -29.694,11.821c-8.023,7.88 -12.461,18.419 -13.316,31.616Z" style="fill:#43859b;fill-rule:nonzero;"/><path d="M3485.12,1419.96c-9.495,8.07 -18.633,13.766 -27.415,17.089c-8.783,3.323 -18.206,4.985 -28.27,4.985c-16.615,-0 -29.385,-4.059 -38.31,-12.177c-8.924,-8.117 -13.387,-18.49 -13.387,-31.117c0,-7.406 1.686,-14.171 5.056,-20.295c3.371,-6.123 7.786,-11.037 13.245,-14.74c5.459,-3.702 11.607,-6.503 18.443,-8.402c5.032,-1.329 12.627,-2.611 22.786,-3.845c20.698,-2.469 35.936,-5.412 45.715,-8.83c0.095,-3.513 0.143,-5.744 0.143,-6.693c-0,-10.444 -2.421,-17.802 -7.263,-22.075c-6.552,-5.791 -16.283,-8.687 -29.196,-8.687c-12.057,-0 -20.958,2.112 -26.702,6.337c-5.745,4.225 -9.993,11.702 -12.747,22.431l-25.065,-3.418c2.279,-10.729 6.029,-19.393 11.251,-25.991c5.222,-6.599 12.77,-11.678 22.644,-15.239c9.874,-3.56 21.315,-5.34 34.322,-5.34c12.913,-0 23.404,1.519 31.474,4.557c8.07,3.038 14.004,6.86 17.802,11.465c3.798,4.604 6.456,10.42 7.975,17.446c0.855,4.367 1.282,12.247 1.282,23.64l-0,34.18c-0,23.831 0.546,38.903 1.638,45.217c1.092,6.314 3.252,12.366 6.48,18.158l-26.774,-0c-2.659,-5.317 -4.368,-11.536 -5.127,-18.656Zm-2.137,-57.251c-9.304,3.797 -23.261,7.025 -41.87,9.684c-10.538,1.519 -17.992,3.228 -22.359,5.127c-4.367,1.899 -7.738,4.676 -10.111,8.331c-2.374,3.655 -3.561,7.714 -3.561,12.177c0,6.836 2.587,12.532 7.762,17.089c5.174,4.558 12.746,6.836 22.715,6.836c9.874,0 18.656,-2.16 26.347,-6.48c7.69,-4.319 13.339,-10.23 16.947,-17.73c2.754,-5.792 4.13,-14.337 4.13,-25.635l0,-9.399Z" style="fill:#43859b;fill-rule:nonzero;"/><path d="M3548.35,1438.62l0,-151.245l23.071,-0l0,22.929c5.887,-10.729 11.322,-17.802 16.307,-21.22c4.984,-3.418 10.467,-5.127 16.449,-5.127c8.64,-0 17.422,2.753 26.347,8.26l-8.83,23.783c-6.266,-3.702 -12.533,-5.554 -18.799,-5.554c-5.602,0 -10.634,1.685 -15.096,5.056c-4.462,3.37 -7.643,8.046 -9.542,14.028c-2.848,9.114 -4.272,19.083 -4.272,29.907l-0,79.183l-25.635,-0Z" style="fill:#43859b;fill-rule:nonzero;"/><path d="M3645.76,1438.62l0,-151.245l23.071,-0l0,21.505c11.109,-16.616 27.154,-24.923 48.137,-24.923c9.114,-0 17.493,1.638 25.136,4.913c7.643,3.276 13.363,7.572 17.161,12.889c3.798,5.317 6.456,11.63 7.975,18.941c0.95,4.747 1.425,13.055 1.425,24.923l-0,92.997l-25.635,-0l-0,-92c-0,-10.444 -0.997,-18.253 -2.991,-23.428c-1.994,-5.174 -5.53,-9.304 -10.61,-12.39c-5.079,-3.085 -11.037,-4.628 -17.873,-4.628c-10.918,-0 -20.342,3.465 -28.269,10.396c-7.928,6.931 -11.892,20.081 -11.892,39.449l-0,82.601l-25.635,-0Z" style="fill:#43859b;fill-rule:nonzero;"/><path d="M3808.12,1259.32l-0,-29.48l25.634,0l0,29.48l-25.634,0Zm-0,179.301l-0,-151.245l25.634,-0l0,151.245l-25.634,-0Z" style="fill:#43859b;fill-rule:nonzero;"/><path d="M3872.77,1438.62l0,-151.245l23.072,-0l-0,21.505c11.108,-16.616 27.153,-24.923 48.136,-24.923c9.114,-0 17.493,1.638 25.136,4.913c7.643,3.276 13.364,7.572 17.161,12.889c3.798,5.317 6.456,11.63 7.976,18.941c0.949,4.747 1.424,13.055 1.424,24.923l-0,92.997l-25.635,-0l-0,-92c-0,-10.444 -0.997,-18.253 -2.991,-23.428c-1.994,-5.174 -5.53,-9.304 -10.61,-12.39c-5.079,-3.085 -11.037,-4.628 -17.873,-4.628c-10.918,-0 -20.342,3.465 -28.269,10.396c-7.928,6.931 -11.892,20.081 -11.892,39.449l-0,82.601l-25.635,-0Z" style="fill:#43859b;fill-rule:nonzero;"/><path d="M4030.28,1451.15l24.922,3.702c1.045,7.691 3.94,13.292 8.688,16.805c6.361,4.748 15.048,7.121 26.062,7.121c11.868,0 21.03,-2.373 27.486,-7.121c6.456,-4.747 10.823,-11.393 13.102,-19.938c1.329,-5.222 1.946,-16.188 1.851,-32.898c-11.203,13.197 -25.16,19.796 -41.87,19.796c-20.792,-0 -36.885,-7.501 -48.278,-22.502c-11.394,-15.001 -17.09,-32.993 -17.09,-53.975c-0,-14.431 2.611,-27.747 7.833,-39.948c5.221,-12.2 12.793,-21.623 22.715,-28.269c9.921,-6.646 21.576,-9.969 34.963,-9.969c17.849,-0 32.565,7.216 44.148,21.647l0,-18.229l23.641,-0l0,130.737c0,23.546 -2.397,40.233 -7.192,50.059c-4.794,9.827 -12.39,17.588 -22.786,23.285c-10.396,5.697 -23.19,8.545 -38.381,8.545c-18.039,0 -32.613,-4.059 -43.721,-12.177c-11.109,-8.117 -16.473,-20.341 -16.093,-36.671Zm21.219,-90.861c0,19.843 3.941,34.322 11.821,43.436c7.88,9.115 17.754,13.672 29.622,13.672c11.773,0 21.648,-4.533 29.623,-13.601c7.975,-9.067 11.963,-23.284 11.963,-42.653c-0,-18.514 -4.107,-32.471 -12.319,-41.87c-8.213,-9.4 -18.111,-14.099 -29.694,-14.099c-11.393,-0 -21.077,4.628 -29.053,13.885c-7.975,9.257 -11.963,23 -11.963,41.23Z" style="fill:#43859b;fill-rule:nonzero;"/><path d="M4284.35,1438.62l-0,-131.307l-22.644,0l-0,-19.938l22.644,-0l-0,-16.093c-0,-10.159 0.902,-17.707 2.706,-22.644c2.468,-6.646 6.812,-12.034 13.031,-16.164c6.218,-4.13 14.929,-6.195 26.133,-6.195c7.215,-0 15.191,0.854 23.926,2.563l-3.846,22.359c-5.317,-0.949 -10.349,-1.424 -15.096,-1.424c-7.785,0 -13.292,1.662 -16.52,4.985c-3.228,3.323 -4.842,9.542 -4.842,18.656l-0,13.957l29.48,-0l-0,19.938l-29.48,0l-0,131.307l-25.492,-0Z" style="fill:#43859b;fill-rule:nonzero;"/><path d="M4349.72,1363c0,-28.008 7.786,-48.753 23.356,-62.235c13.008,-11.203 28.863,-16.805 47.567,-16.805c20.793,-0 37.788,6.812 50.985,20.436c13.197,13.625 19.796,32.447 19.796,56.468c-0,19.464 -2.92,34.773 -8.759,45.929c-5.839,11.156 -14.336,19.82 -25.492,25.991c-11.156,6.171 -23.333,9.257 -36.53,9.257c-21.172,-0 -38.286,-6.789 -51.341,-20.365c-13.054,-13.577 -19.582,-33.136 -19.582,-58.676Zm26.347,0c0,19.369 4.225,33.872 12.675,43.508c8.45,9.637 19.084,14.455 31.901,14.455c12.723,0 23.309,-4.842 31.759,-14.526c8.45,-9.684 12.675,-24.448 12.675,-44.291c-0,-18.704 -4.249,-32.874 -12.746,-42.511c-8.498,-9.637 -19.06,-14.455 -31.688,-14.455c-12.817,-0 -23.451,4.794 -31.901,14.384c-8.45,9.589 -12.675,24.068 -12.675,43.436Z" style="fill:#43859b;fill-rule:nonzero;"/><path d="M4521.19,1438.62l0,-151.245l23.072,-0l-0,22.929c5.886,-10.729 11.322,-17.802 16.306,-21.22c4.985,-3.418 10.468,-5.127 16.449,-5.127c8.64,-0 17.422,2.753 26.347,8.26l-8.83,23.783c-6.266,-3.702 -12.532,-5.554 -18.799,-5.554c-5.601,0 -10.633,1.685 -15.096,5.056c-4.462,3.37 -7.643,8.046 -9.541,14.028c-2.849,9.114 -4.273,19.083 -4.273,29.907l0,79.183l-25.635,-0Z" style="fill:#43859b;fill-rule:nonzero;"/><path d="M4702.91,1438.62l0,-208.781l78.756,0c13.862,0 24.448,0.665 31.759,1.994c10.254,1.709 18.846,4.961 25.777,9.755c6.931,4.795 12.509,11.512 16.734,20.152c4.225,8.64 6.337,18.134 6.337,28.483c0,17.755 -5.649,32.779 -16.947,45.075c-11.299,12.295 -31.711,18.442 -61.239,18.442l-53.548,0l-0,84.88l-27.629,-0Zm27.629,-109.517l53.975,-0c17.85,-0 30.525,-3.323 38.025,-9.97c7.501,-6.646 11.251,-15.998 11.251,-28.055c0,-8.735 -2.207,-16.212 -6.622,-22.431c-4.415,-6.219 -10.23,-10.325 -17.446,-12.319c-4.652,-1.234 -13.245,-1.851 -25.777,-1.851l-53.406,-0l-0,74.626Z" style="fill:#43859b;fill-rule:nonzero;"/><path d="M4897.45,1438.62l-0,-208.781l71.92,0c16.235,0 28.625,0.997 37.17,2.991c11.963,2.753 22.169,7.738 30.619,14.953c11.014,9.305 19.25,21.197 24.709,35.675c5.46,14.479 8.189,31.023 8.189,49.632c0,15.856 -1.851,29.907 -5.554,42.155c-3.703,12.248 -8.45,22.383 -14.242,30.406c-5.791,8.023 -12.129,14.336 -19.012,18.941c-6.883,4.605 -15.191,8.094 -24.923,10.468c-9.731,2.373 -20.911,3.56 -33.539,3.56l-75.337,-0Zm27.628,-24.638l44.576,0c13.767,0 24.567,-1.282 32.4,-3.845c7.833,-2.564 14.075,-6.171 18.727,-10.824c6.552,-6.551 11.655,-15.357 15.31,-26.418c3.655,-11.061 5.483,-24.471 5.483,-40.232c0,-21.837 -3.584,-38.618 -10.752,-50.344c-7.168,-11.725 -15.88,-19.582 -26.133,-23.57c-7.406,-2.848 -19.321,-4.272 -35.747,-4.272l-43.864,-0l0,159.505Z" style="fill:#43859b;fill-rule:nonzero;"/><path d="M5108.65,1438.62l-0,-208.781l150.96,0l0,24.638l-123.332,-0l0,63.944l115.499,0l0,24.496l-115.499,-0l0,71.065l128.174,0l0,24.638l-155.802,-0Z" style="fill:#43859b;fill-rule:nonzero;"/><path d="M5289.09,1393.47l25.35,-3.987c1.424,10.159 5.388,17.944 11.892,23.356c6.503,5.412 15.594,8.117 27.272,8.117c11.773,0 20.508,-2.397 26.205,-7.192c5.696,-4.794 8.545,-10.42 8.545,-16.876c-0,-5.791 -2.516,-10.349 -7.548,-13.672c-3.513,-2.278 -12.248,-5.174 -26.205,-8.687c-18.799,-4.747 -31.83,-8.853 -39.093,-12.319c-7.263,-3.465 -12.77,-8.26 -16.52,-14.384c-3.75,-6.124 -5.626,-12.888 -5.626,-20.294c0,-6.741 1.543,-12.984 4.629,-18.728c3.086,-5.744 7.287,-10.515 12.604,-14.312c3.987,-2.944 9.423,-5.436 16.306,-7.477c6.884,-2.041 14.266,-3.062 22.146,-3.062c11.868,-0 22.288,1.709 31.26,5.127c8.972,3.418 15.595,8.046 19.867,13.885c4.272,5.839 7.216,13.648 8.83,23.428l-25.065,3.418c-1.14,-7.786 -4.439,-13.862 -9.898,-18.23c-5.459,-4.367 -13.174,-6.551 -23.143,-6.551c-11.773,0 -20.175,1.947 -25.207,5.839c-5.032,3.893 -7.548,8.45 -7.548,13.672c-0,3.323 1.044,6.314 3.133,8.972c2.089,2.754 5.364,5.032 9.827,6.836c2.563,0.95 10.111,3.134 22.644,6.551c18.134,4.843 30.785,8.806 37.953,11.892c7.169,3.086 12.794,7.572 16.877,13.458c4.082,5.887 6.123,13.198 6.123,21.932c0,8.545 -2.492,16.592 -7.476,24.14c-4.985,7.548 -12.177,13.387 -21.576,17.517c-9.4,4.13 -20.033,6.195 -31.901,6.195c-19.654,-0 -34.631,-4.083 -44.932,-12.248c-10.302,-8.165 -16.877,-20.27 -19.725,-36.316Z" style="fill:#43859b;fill-rule:nonzero;"/></g></svg>